<svg width="36" height="35" viewBox="0 0 36 35" fill="none" xmlns="http://www.w3.org/2000/svg">
<g clip-path="url(#clip0_160_281)">
<path d="M23.1037 20.4167H21.9261L21.5088 20.0229C22.9695 18.3604 23.8489 16.2021 23.8489 13.8542C23.8489 8.61875 19.5114 4.375 14.1603 4.375C8.80921 4.375 4.47168 8.61875 4.47168 13.8542C4.47168 19.0896 8.80921 23.3333 14.1603 23.3333C16.5601 23.3333 18.7661 22.4729 20.4654 21.0438L20.8678 21.4521V22.6042L28.3206 29.8813L30.5416 27.7083L23.1037 20.4167ZM14.1603 20.4167C10.4488 20.4167 7.4528 17.4854 7.4528 13.8542C7.4528 10.2229 10.4488 7.29167 14.1603 7.29167C17.8718 7.29167 20.8678 10.2229 20.8678 13.8542C20.8678 17.4854 17.8718 20.4167 14.1603 20.4167Z" fill="#999999"/>
</g>
<defs>
<clipPath id="clip0_160_281">
<rect width="35.7734" height="35" fill="white"/>
</clipPath>
</defs>
</svg>
